PathFileType	4	(X/Y/Z)	69_2_54_p0_0-235_filt_butterworth.trc
DataRate	CameraRate	NumFrames	NumMarkers	Units	OrigDataRate	OrigDataStartFrame	OrigNumFrames
50.0	50.0	6	27	m	50.0	176	235
Frame#	Time	RHip			RKnee			RAnkle			RBigToe			RSmallToe			RHeel			LHip			LKnee			LAnkle			LBigToe			LSmallToe			LHeel			Neck			Head			Nose			RShoulder			RElbow			RWrist			RThumb			RIndex			RPinky			LShoulder			LElbow			LWrist			LThumb			LIndex			LPinky			
		X1	Y1	Z1	X2	Y2	Z2	X3	Y3	Z3	X4	Y4	Z4	X5	Y5	Z5	X6	Y6	Z6	X7	Y7	Z7	X8	Y8	Z8	X9	Y9	Z9	X10	Y10	Z10	X11	Y11	Z11	X12	Y12	Z12	X13	Y13	Z13	X14	Y14	Z14	X15	Y15	Z15	X16	Y16	Z16	X17	Y17	Z17	X18	Y18	Z18	X19	Y19	Z19	X20	Y20	Z20	X21	Y21	Z21	X22	Y22	Z22	X23	Y23	Z23	X24	Y24	Z24	X25	Y25	Z25	X26	Y26	Z26	X27	Y27	Z27	
176	3.52	0.28873070120616046	0.9083624581826548	0.5383352693142368	0.24903440838798444	0.4895901116658917	0.557946507798105	0.21937862570412203	0.08693515659445429	0.5996801444282335	0.26021127184011494	0.07483670234562646	0.46145443890455046	0.31324207234596435	0.08821176545261429	0.48376221416508897	0.1704025990870238	0.023844406311393753	0.679451598063317	0.11292729828525279	0.9154136524725441	0.46514546162761095	0.049722832120872994	0.4860836372623764	0.5273731538181795	0.03477343046725991	0.0808988530218303	0.5801063338717201	0.11027520654081191	0.10120653891628674	0.38788167579235944	0.05237081575426561	0.09544310820714229	0.41726483140290477	0.03388415753617247	0.03403945415647294	0.6149383645777874	0.2169922607866233	1.4375632505878184	0.5244567042091092	0.25192074258437264	1.6709342631566584	0.4896498785038471	0.25570022115132474	1.5461767805155406	0.4486129465019403	0.35755256974502814	1.355407686315623	0.5659570844009043	0.41967809309322496	1.1401238125195126	0.4705571089243465	0.2735124946842684	1.1335080301919764	0.4027330228632774	0.15679561495279215	1.1469362647157793	0.4040268628390485	0.16599064016932852	1.129150910807778	0.3589926705819151	0.20020258647330413	1.0866869828668633	0.34826779468180286	0.06594330600689284	1.3783268176636698	0.49204759646189045	0.07341962137623603	1.149269962762495	0.3723574309695066	0.22011423276521003	1.0207292351382333	0.3197614308720096	0.3164862727707131	0.9900584187267262	0.3300653079209874	0.3065583386955691	0.9607703596688323	0.3468972117983723	0.26907509584067957	0.9392230575836077	0.344080062214617	
177	3.54	0.2872258463579237	0.9100436871910523	0.5397179381284751	0.24884846875141448	0.48869735760377575	0.5596961052551886	0.2192149994316886	0.0865216702280006	0.6006176229608886	0.2587710136950354	0.07363465146394971	0.4635159084414299	0.312327145192157	0.0876904373702482	0.4850830656931891	0.1697016388902114	0.022109606512618625	0.6816967144538169	0.1114031492322221	0.9169774503058938	0.4665363415478533	0.04965521630784769	0.48599115924111314	0.5268427911645214	0.03504042220937115	0.08056768714732436	0.5800624262330415	0.11067774291199645	0.10290890396933651	0.3852698201396112	0.052398062072519444	0.0955254222327951	0.41726510280219725	0.03511845471283748	0.03497582669674582	0.6133380917651183	0.21699632758317589	1.437353038455404	0.5242674472454076	0.2514364154153843	1.6710573774318989	0.48644733332082063	0.2559093583139568	1.5465820674818815	0.4455651453507782	0.35647835734044153	1.3538315704551158	0.5652749074317843	0.423761076817332	1.13409981604864	0.48324077245264957	0.2825345432978323	1.122784128127228	0.410724269375177	0.1638027625301502	1.131329098492375	0.4111347737638238	0.17361954473301713	1.1148398868983749	0.37255693936143613	0.20824492774975467	1.068919779335699	0.3595189852454586	0.06595873747130757	1.3775860901616523	0.489352949669727	0.06898122266002601	1.1426194703759065	0.37461832979972204	0.20940377772798774	1.0053765528101786	0.3093238990543374	0.3038907133261124	0.9702073407264815	0.3175964140447166	0.29348912565624213	0.9392649896109012	0.3283021173920862	0.25468920005604506	0.9221897188436767	0.3288787086293138	
178	3.56	0.28591294582642557	0.912113846181521	0.5415741138409135	0.24876211082113836	0.4882836677646014	0.5612504360925502	0.21905090852607897	0.08618309334324498	0.6013965338546612	0.2570409597570197	0.07195245451188917	0.4661166683505974	0.31213417959970147	0.0869853205903182	0.4852753466607846	0.16878450238314419	0.020574027278704707	0.6840808016746819	0.10993221167472864	0.9191523842134554	0.46799829656201714	0.04963980263391817	0.4862067434001541	0.5262772932011375	0.0352717754162937	0.08060540142068232	0.5796903718472692	0.11156156529759281	0.10491965143041004	0.38310435939711923	0.05239723134445262	0.09567833480612067	0.41723947200476574	0.03634780491488781	0.03584382179381352	0.6117770164011553	0.21698076579464953	1.4367842331556606	0.5241105121993778	0.2509712219662546	1.6711870002179128	0.4834437426560169	0.25605554548652604	1.5468115480312896	0.4434333605311393	0.35569104020824055	1.351898323511357	0.565243110576647	0.4263121502199748	1.128768311575743	0.4974316487077378	0.2895489602965074	1.108107816159727	0.41676019608342124	0.17094395254261252	1.1106747507564172	0.41556217975062243	0.17605427165358006	1.0927220257412618	0.3857439809847853	0.2122158903750646	1.0471211179272115	0.3705192444108242	0.06615196478519235	1.3760526749752897	0.4866964684790863	0.06398431143887706	1.1369753840149164	0.37866080423116927	0.19636707690193608	0.9899396353637361	0.3032415599424123	0.28519824408738403	0.9495842603443017	0.30948482875507155	0.2768506579851571	0.9184322669433266	0.3103166368047982	0.23928732159031169	0.9058321863839837	0.310852077427421	
179	3.58	0.28473440271656486	0.9141548198298424	0.5438256583714981	0.24880751042220267	0.48824130743427496	0.5624751844090472	0.21887376689914798	0.0858767112954632	0.6019903693319071	0.2552078392984235	0.06967261230989158	0.4688837243538655	0.3123369166639477	0.08639065699797477	0.4847449984841397	0.1677996519340354	0.019253823538315295	0.6867102645835154	0.10836880897281201	0.9213376824590683	0.4695030196733675	0.04966576384558365	0.4867001263965126	0.5257355003978117	0.03546361832402585	0.08083694751343742	0.5789748897922335	0.11264197915832169	0.10699215644111769	0.38134615496095714	0.05225685512823243	0.09571904600734539	0.41731697564061676	0.03739330119772947	0.03650228343970789	0.6104710076092849	0.21693002210540285	1.4356412277675596	0.5239878619182083	0.25058929724741236	1.6711803787248998	0.481034151820297	0.2561339929416773	1.546938663900537	0.44217797147004007	0.3552716161493873	1.3498111114045839	0.5656570080959994	0.4274128191017112	1.123649771105224	0.5115164006859604	0.295114211637057	1.088318095713357	0.42008506434932025	0.1767804682735133	1.083741973528236	0.41416013617630937	0.17693801559784703	1.0637291892103335	0.3932860266776691	0.21280612470269095	1.0205457169841763	0.3779329782105367	0.06632021431411758	1.373661338766207	0.4843995264155739	0.05921202112871318	1.131947332747825	0.3836225360610887	0.1810773928779365	0.974374567314062	0.30047899889870167	0.26071123978225663	0.9271515201357371	0.30492080499592467	0.2555632898509449	0.8968761489531629	0.29408430841683497	0.22228026119690347	0.8887787036908371	0.2885534589509894	
180	3.6	0.28377973659595235	0.9161399152057368	0.5461469038990718	0.24899732114302434	0.4885450565792892	0.5632861762224678	0.21869315690231245	0.08562981220827949	0.6023718701348766	0.2533941823482927	0.06678013047543932	0.4715276432490471	0.31254116729754244	0.08613931579308093	0.4841552148165474	0.1667957464830921	0.01808244582719568	0.6895536087519734	0.1068484302633346	0.9234783917582428	0.4710314291303209	0.04973152347144651	0.48750631840395986	0.5252467076988048	0.035574026860299965	0.08110053790201122	0.5780360341736834	0.11370200937576565	0.10888016392197593	0.3799466014577846	0.051899488068419174	0.09537159670034334	0.41765796648961573	0.038165379575597104	0.03688704260479394	0.6094941918515493	0.21686352496964945	1.433910346778882	0.5238607331367462	0.2503574457205772	1.670941450619454	0.4795965501394188	0.25621254558881	1.547085610132659	0.44084092850600637	0.35538464422911364	1.3478375192247374	0.5661516237802809	0.427218945450785	1.1183131553242611	0.5247923864396546	0.29983253970967144	1.063632700479939	0.42103031776489924	0.18234705625686665	1.0504004257657442	0.40674167087303026	0.1804702940566716	1.0295880019161174	0.3942376594048636	0.21298505471025944	0.9901520645068126	0.3802730236536046	0.06636750613551079	1.3706406199599614	0.4828693664553901	0.05538198451823892	1.1276332545772874	0.3878305286608929	0.1624184681007908	0.9599339651586438	0.3003401930299261	0.23266262798722412	0.9043164736277589	0.30070133148932676	0.229172228106508	0.8752102346327921	0.2798542597163595	0.2015631978626175	0.8708694032435648	0.2644912173910502	
181	3.62	0.2830890692670976	0.918218253779198	0.5484304892478703	0.2492858124348018	0.48918894623535225	0.5635828894492254	0.2185696977013842	0.08551550680856931	0.6025061593154482	0.25181774003516294	0.06351944556362409	0.4736868289337526	0.3126070347758527	0.08615423898123407	0.4838144255282982	0.165691666273938	0.016977496430782293	0.6922553047988588	0.10572593563806099	0.9259009345148694	0.47252888995042897	0.049840562601470025	0.4887172161967101	0.5247969562526749	0.035555239395964146	0.08118761562080332	0.5772718176199788	0.1146993815980652	0.11039413775581289	0.37883983080233163	0.05152463016954782	0.09466445515303333	0.4180966134380298	0.03863342785337716	0.03696442428195297	0.6088564780249739	0.21679472926303217	1.4317638051485528	0.5237667078608695	0.2502951488255072	1.67047816420563	0.4792575987291392	0.2563338351324762	1.5472501621595374	0.43889263978342363	0.3562329553563105	1.3461556197585525	0.5656985641770993	0.4251902793602456	1.1123946072394248	0.5377814692790407	0.30432789883599676	1.034884116397305	0.4203148499531245	0.1910606727563701	1.011605300007595	0.39459256918789265	0.189398552334677	0.9918672299672411	0.3892681516022384	0.21679479851597055	0.9571905617339991	0.3783693368757693	0.06634287758205604	1.3674385666166737	0.482232615603155	0.05236705697926938	1.1238937298010423	0.3907014558741721	0.14014610318579435	0.9478629518482827	0.30192977470915117	0.20312312571754415	0.8829980632170982	0.2952615640052754	0.19797394443852145	0.8552327832176044	0.2682429662172522	0.17419048674472304	0.852922816224316	0.24613770784478026	
